<svg xmlns="http://www.w3.org/2000/svg" version="1.1" xmlns:xlink="http://www.w3.org/1999/xlink" xmlns:svgjs="http://svgjs.dev/svgjs" width="2000" height="1500" viewBox="0 0 2000 1500"><rect width="2000" height="1500" fill="#ececea"></rect><g transform="matrix(0.75,0,0,0.75,249.2500000000001,-0.7499999999998863)"><svg viewBox="0 0 280 280" data-background-color="#ececea" preserveAspectRatio="xMidYMid meet" height="2000" width="2000" xmlns="http://www.w3.org/2000/svg" xmlns:xlink="http://www.w3.org/1999/xlink"><g id="tight-bounds" transform="matrix(1,0,0,1,0.13999999999998636,0.13999999999998636)"><svg viewBox="0 0 279.72 279.72" height="279.72" width="279.72"><g><svg viewBox="0 0 279.72 279.72" height="279.72" width="279.72"><g><svg viewBox="0 0 279.72 279.72" height="279.72" width="279.72"><g id="textblocktransform"><svg viewBox="0 0 279.72 279.72" height="279.72" width="279.72" id="textblock"><g><svg viewBox="0 0 279.72 279.72" height="279.72" width="279.72"><g transform="matrix(1,0,0,1,57.446704652707865,57.446704652707865)"><svg viewBox="0 0 164.8265906945843 164.8265906945843" height="164.8265906945843" width="164.8265906945843"><g id="icon-0"><circle r="82" cx="82.41329534729215" cy="82.41329534729215" fill="#ffbf5d" data-fill-palette-color="accent"></circle><svg xmlns="http://www.w3.org/2000/svg" xmlns:xlink="http://www.w3.org/1999/xlink" version="1.1" x="24.72398860418764" y="24.723988604187646" viewBox="14.40377200101631 13.89389245217481 71.19035655842399 72.2081075478252" enable-background="new 0 0 100 100" xml:space="preserve" height="115.378613486209" width="115.378613486209" class="icon-jxe-0" data-fill-palette-color="quaternary" id="jxe-0"><path d="M81.486 70.233A12.75 12.75 0 0 1 81.486 60.858L85.491 50.693A1.502 1.502 0 0 0 83.789 48.675C77.247 50.041 73.799 55.329 72.326 58.361 72.315 58.383 72.285 58.444 72.201 58.452A0.13 0.13 0 0 1 72.089 58.399C68.445 53.391 60.166 44.989 45.656 44.989 27.624 44.989 16.754 61.085 14.758 64.31A2.33 2.33 0 0 0 14.758 66.78C16.754 70.007 27.624 86.102 45.656 86.102 60.166 86.102 68.445 77.701 72.089 72.693A0.13 0.13 0 0 1 72.201 72.639 0.15 0.15 0 0 1 72.326 72.73C73.799 75.761 77.247 81.049 83.789 82.415A1.502 1.502 0 0 0 85.491 80.397zM75.025 71.42A3.13 3.13 0 0 0 72.467 69.652 3.1 3.1 0 0 0 69.664 70.928C66.356 75.474 58.838 83.102 45.657 83.102 29.774 83.102 19.849 69.185 17.526 65.545 19.848 61.907 29.773 47.988 45.657 47.988 58.838 47.988 66.356 55.616 69.664 60.163A3.1 3.1 0 0 0 72.467 61.439 3.13 3.13 0 0 0 75.025 59.671C76.213 57.227 78.238 54.275 81.507 52.623L78.695 59.758A15.73 15.73 0 0 0 78.695 71.333L81.507 78.469C78.237 76.816 76.213 73.864 75.025 71.42" fill="#ececea" data-fill-palette-color="quaternary"></path><circle cx="32.603" cy="61.238" r="3.3" fill="#ececea" data-fill-palette-color="quaternary"></circle><path d="M39.542 37.45A1.5 1.5 0 0 0 41.161 36.08C41.344 33.902 42.928 32.149 44.612 30.579L44.977 30.241C46.84 28.515 48.951 26.558 49.706 23.81 50.692 20.22 48.984 16.522 47.877 14.638A1.499 1.499 0 1 0 45.29 16.157C46.157 17.634 47.507 20.489 46.813 23.016 46.285 24.939 44.583 26.516 42.938 28.04L42.568 28.383C40.545 30.268 38.44 32.627 38.172 35.829A1.5 1.5 0 0 0 39.542 37.45" fill="#ececea" data-fill-palette-color="quaternary"></path><path d="M53.352 37.45A1.5 1.5 0 0 0 54.971 36.08C55.154 33.902 56.738 32.149 58.423 30.579L58.788 30.24C60.65 28.514 62.761 26.558 63.516 23.811 64.502 20.221 62.794 16.523 61.688 14.638A1.5 1.5 0 1 0 59.101 16.157C59.968 17.634 61.318 20.489 60.623 23.016 60.095 24.939 58.394 26.515 56.749 28.039L56.378 28.383C54.354 30.269 52.25 32.628 51.982 35.829A1.5 1.5 0 0 0 53.352 37.45" fill="#ececea" data-fill-palette-color="quaternary"></path><path d="M47.22 54.601A1.5 1.5 0 0 0 46.607 56.632C50.135 63.212 48.587 70.935 43.155 73.848A1.5 1.5 0 0 0 44.573 76.492C51.463 72.797 53.561 63.252 49.25 55.214A1.5 1.5 0 0 0 47.22 54.601" fill="#ececea" data-fill-palette-color="quaternary"></path></svg></g></svg></g><g id="text-0"><path d="M20.713 100.652c0.015 0.401-0.019 0.849-0.104 1.343-0.089 0.485-0.259 1.14-0.509 1.966v0l-1.05 3.468c0.014-0.19-0.085-0.433-0.298-0.729-0.207-0.293-0.703-0.559-1.49-0.797v0l-10.423-3.157c-0.727-0.22-1.255-0.272-1.586-0.156-0.337 0.114-0.562 0.259-0.673 0.434v0l1.045-3.448c0.272-0.898 0.515-1.571 0.73-2.018 0.221-0.445 0.461-0.82 0.719-1.123v0c0.485-0.531 1.046-0.884 1.683-1.059 0.63-0.177 1.256-0.171 1.877 0.017v0c0.938 0.284 1.661 0.813 2.17 1.587 0.508 0.774 0.722 1.654 0.639 2.639v0c0.263-0.606 0.625-1.148 1.088-1.629 0.469-0.478 1.009-0.819 1.619-1.024 0.617-0.203 1.245-0.207 1.887-0.012v0c0.898 0.272 1.56 0.732 1.983 1.379 0.424 0.648 0.655 1.421 0.693 2.319zM7.88 97.415c-0.289 0.215-0.535 0.469-0.739 0.76-0.204 0.292-0.389 0.712-0.554 1.26v0l-0.438 1.447 5.974 1.809 0.516-1.704c0.152-0.502 0.203-0.944 0.154-1.327-0.057-0.385-0.172-0.741-0.348-1.068v0c-0.182-0.351-0.442-0.66-0.779-0.928-0.329-0.273-0.691-0.469-1.087-0.589v0c-0.476-0.144-0.952-0.191-1.428-0.141-0.47 0.052-0.894 0.212-1.271 0.481zM14.812 99.027c-0.285 0.202-0.537 0.486-0.756 0.853-0.217 0.36-0.428 0.876-0.631 1.55v0l-0.459 1.516 5.974 1.81 0.606-2.002c0.304-1.004 0.305-1.865 0.004-2.584-0.304-0.712-0.977-1.226-2.021-1.542v0c-0.964-0.292-1.87-0.159-2.717 0.399z" fill="#009b7d" data-fill-palette-color="primary"></path><path d="M11.078 87.101c-0.257 0.588-0.356 1.128-0.3 1.62 0.059 0.485 0.225 0.892 0.495 1.221v0l-1.888-1.162 4.167-9.556 2.132 0.602c-0.422 0.019-0.833 0.175-1.232 0.468-0.396 0.287-0.724 0.727-0.983 1.322v0l-0.877 2.012 11.179 4.874c0.538 0.234 0.978 0.347 1.321 0.339 0.343-0.009 0.597-0.075 0.763-0.198 0.158-0.12 0.217-0.188 0.18-0.204v0l-1.399 3.207c0.038 0.017 0.049-0.077 0.032-0.279-0.026-0.2-0.149-0.426-0.37-0.681-0.217-0.245-0.604-0.489-1.16-0.732v0l-11.179-4.874z" fill="#009b7d" data-fill-palette-color="primary"></path><path d="M37.428 68.222l-1.747 2.937c0.068-0.168 0.03-0.416-0.113-0.742-0.141-0.317-0.546-0.674-1.216-1.073v0l-9.45-5.621 8.491 11.748-14.406-1.763 9.343 5.557c0.676 0.402 1.216 0.575 1.619 0.518 0.403-0.057 0.67-0.168 0.8-0.332v0l-1.662 2.794c0.086-0.198 0.067-0.49-0.057-0.877-0.121-0.377-0.534-0.776-1.24-1.195v0l-9.467-5.631c-0.605-0.36-1.087-0.502-1.445-0.426-0.352 0.079-0.616 0.212-0.791 0.397v0l1.514-2.545 13.319 1.647-7.852-10.838 1.36-2.287c-0.075 0.18-0.05 0.436 0.074 0.767 0.13 0.334 0.516 0.692 1.157 1.073v0l9.582 5.7c0.629 0.374 1.118 0.537 1.469 0.488 0.356-0.045 0.595-0.144 0.718-0.296z" fill="#009b7d" data-fill-palette-color="primary"></path><path d="M47.416 56.481c-0.503 0.569-1.066 1.048-1.687 1.437-0.627 0.385-1.268 0.662-1.923 0.829v0l-1.992-1.764c0.985 0.365 1.928 0.42 2.826 0.166 0.904-0.251 1.637-0.694 2.2-1.33v0c0.563-0.636 0.822-1.356 0.778-2.16-0.044-0.804-0.379-1.483-1.004-2.036v0c-0.419-0.371-0.851-0.601-1.297-0.691-0.446-0.09-0.962-0.064-1.55 0.08-0.592 0.149-1.348 0.42-2.268 0.813v0c-1.286 0.567-2.358 0.858-3.217 0.871-0.865 0.009-1.636-0.287-2.313-0.886v0c-0.584-0.517-0.98-1.116-1.188-1.798-0.208-0.682-0.223-1.373-0.046-2.073 0.173-0.695 0.513-1.329 1.021-1.903v0c0.435-0.491 0.93-0.91 1.486-1.256 0.555-0.357 1.138-0.624 1.748-0.804v0l1.783 1.578c-0.838-0.272-1.661-0.29-2.468-0.054-0.807 0.235-1.453 0.626-1.938 1.174v0c-0.553 0.625-0.795 1.31-0.726 2.054 0.06 0.744 0.372 1.366 0.936 1.864v0c0.403 0.357 0.855 0.549 1.355 0.578 0.495 0.024 0.987-0.043 1.476-0.201 0.494-0.162 1.153-0.417 1.978-0.765v0c0.839-0.354 1.559-0.616 2.16-0.785 0.605-0.174 1.226-0.214 1.863-0.121 0.642 0.098 1.252 0.403 1.83 0.915v0c0.662 0.586 1.093 1.249 1.295 1.99 0.211 0.74 0.215 1.485 0.011 2.236-0.209 0.746-0.585 1.427-1.129 2.042z" fill="#009b7d" data-fill-palette-color="primary"></path><path d="M59.427 44.387l-6.089 5.614c0.028 0.03 0.068-0.053 0.12-0.252 0.062-0.198 0.031-0.465-0.092-0.802-0.123-0.337-0.398-0.737-0.824-1.198v0l-7.319-7.939c-0.407-0.441-0.769-0.732-1.086-0.872-0.317-0.14-0.581-0.192-0.792-0.156-0.206 0.031-0.293 0.064-0.26 0.099v0l5.845-5.39 1.488 1.614c-0.787-0.467-1.665-0.253-2.634 0.64v0l-2.246 2.071 4.232 4.589 2.778-2.561c0.218-0.201 0.368-0.405 0.45-0.612 0.087-0.211 0.133-0.39 0.139-0.537 0.011-0.141 0.009-0.229-0.004-0.264v0l1.446 1.568c-0.029-0.011-0.116-0.019-0.263-0.025-0.146-0.006-0.321 0.028-0.525 0.103-0.203 0.065-0.413 0.198-0.631 0.4v0l-2.793 2.575 4.231 4.59 2.52-2.323c0.487-0.449 0.814-0.934 0.982-1.455 0.163-0.526 0.175-1.011 0.037-1.456v0z" fill="#009b7d" data-fill-palette-color="primary"></path><path d="M66.242 32.158l-4.456 3.184 0.888 3.665c0.133 0.566 0.302 0.993 0.507 1.28v0c0.281 0.393 0.661 0.545 1.141 0.457v0l-2.561 1.829c0.124-0.088 0.213-0.331 0.27-0.727 0.052-0.402-0.024-1.06-0.228-1.974v0l-3.263-14.451 12.607 7.851c0.725 0.457 1.293 0.718 1.703 0.781 0.42 0.065 0.708 0.058 0.865-0.02v0l-2.966 2.119c0.197-0.353 0.188-0.681-0.029-0.985v0c-0.177-0.247-0.527-0.535-1.05-0.865v0zM61.566 34.392l3.866-2.762-5.358-3.386z" fill="#009b7d" data-fill-palette-color="primary"></path><path d="M81.411 13.721l-3.029 1.512 2.788 5.586 3.399-1.697c0.488-0.243 0.777-0.476 0.867-0.698 0.093-0.231 0.116-0.393 0.069-0.487v0l0.962 1.927c-0.018-0.037-0.08-0.083-0.185-0.139-0.099-0.059-0.258-0.084-0.477-0.074-0.222 0.003-0.503 0.089-0.843 0.258v0l-3.399 1.697 2.265 4.539c0.256 0.513 0.516 0.872 0.782 1.079 0.262 0.201 0.498 0.311 0.708 0.33 0.204 0.022 0.299 0.02 0.287-0.005v0l-3.122 1.558c0.012 0.025 0.073-0.048 0.181-0.217 0.117-0.167 0.17-0.417 0.158-0.75-0.012-0.333-0.149-0.762-0.411-1.288v0l-4.878-9.772c-0.268-0.537-0.535-0.917-0.8-1.14-0.265-0.222-0.506-0.349-0.722-0.38-0.21-0.034-0.304-0.03-0.282 0.014v0l7.114-3.551 0.998 2.001c-0.219-0.284-0.541-0.474-0.967-0.57-0.426-0.096-0.914-0.007-1.463 0.267z" fill="#009b7d" data-fill-palette-color="primary"></path><path d="M90.492 17.317c-0.515-1.465-0.658-2.882-0.429-4.249 0.222-1.366 0.791-2.568 1.707-3.606 0.922-1.041 2.128-1.823 3.619-2.348v0c1.244-0.437 2.505-0.573 3.785-0.408 1.28 0.165 2.44 0.679 3.483 1.541 1.036 0.865 1.822 2.063 2.36 3.593v0c0.517 1.472 0.665 2.89 0.442 4.256-0.229 1.368-0.801 2.571-1.716 3.61-0.918 1.032-2.125 1.811-3.623 2.337v0c-1.244 0.437-2.504 0.576-3.782 0.419-1.273-0.167-2.431-0.682-3.473-1.545-1.042-0.863-1.833-2.063-2.373-3.6zM103.476 12.733c-0.442-1.257-1.101-2.301-1.98-3.134-0.878-0.833-1.87-1.377-2.976-1.632-1.109-0.261-2.23-0.193-3.363 0.205v0c-1.035 0.364-1.867 0.952-2.495 1.766-0.622 0.811-0.993 1.775-1.113 2.893-0.117 1.124 0.047 2.321 0.494 3.59v0c0.444 1.263 1.102 2.312 1.973 3.148 0.878 0.833 1.87 1.377 2.976 1.631 1.106 0.255 2.229 0.182 3.369-0.218v0c1.035-0.364 1.865-0.948 2.49-1.753 0.622-0.811 0.992-1.779 1.109-2.902 0.126-1.12-0.035-2.318-0.484-3.594z" fill="#009b7d" data-fill-palette-color="primary"></path><path d="M109.586 11.195c-0.29-1.526-0.219-2.948 0.212-4.266 0.424-1.317 1.167-2.42 2.227-3.31 1.067-0.891 2.377-1.484 3.931-1.779v0c1.295-0.246 2.563-0.191 3.803 0.163 1.24 0.355 2.311 1.037 3.212 2.046 0.894 1.01 1.493 2.312 1.795 3.906v0c0.291 1.532 0.224 2.957-0.2 4.274-0.431 1.318-1.177 2.422-2.238 3.312-1.062 0.883-2.372 1.472-3.932 1.769v0c-1.295 0.246-2.562 0.195-3.801-0.153-1.234-0.356-2.301-1.039-3.202-2.048-0.901-1.009-1.503-2.314-1.807-3.914zM123.109 8.607c-0.248-1.309-0.744-2.44-1.487-3.395-0.743-0.955-1.643-1.641-2.699-2.059-1.057-0.425-2.176-0.525-3.355-0.301v0c-1.078 0.205-1.989 0.662-2.732 1.372-0.737 0.709-1.248 1.607-1.533 2.693-0.284 1.094-0.301 2.302-0.05 3.624v0c0.25 1.315 0.743 2.451 1.479 3.407 0.743 0.955 1.643 1.641 2.699 2.059 1.056 0.418 2.177 0.514 3.363 0.289v0c1.078-0.205 1.986-0.658 2.724-1.36 0.737-0.709 1.247-1.61 1.531-2.703 0.292-1.088 0.312-2.297 0.06-3.626z" fill="#009b7d" data-fill-palette-color="primary"></path><path d="M139.934 13.667c-1.341 0.884-3.159 1.379-5.455 1.485v0l-4.323 0.2c0.002 0.041 0.086-0.004 0.253-0.136 0.174-0.132 0.321-0.371 0.444-0.715 0.123-0.337 0.169-0.83 0.139-1.478v0l-0.499-10.807c-0.026-0.572-0.115-1.003-0.267-1.294-0.152-0.297-0.32-0.493-0.504-0.588-0.177-0.095-0.265-0.126-0.264-0.091v0l4.302-0.199c2.241-0.103 4.029 0.18 5.367 0.851v0c1.188 0.588 2.121 1.419 2.799 2.492 0.678 1.067 1.049 2.29 1.112 3.67v0c0.069 1.489-0.168 2.792-0.71 3.909-0.542 1.124-1.34 2.024-2.394 2.701zM138.531 1.907c-0.661-0.391-1.361-0.666-2.101-0.826-0.746-0.152-1.623-0.205-2.629-0.158v0l-1.779 0.082 0.617 13.351 1.779-0.082c1.2-0.055 2.181-0.204 2.943-0.447 0.756-0.235 1.403-0.58 1.942-1.033v0c0.691-0.592 1.209-1.344 1.554-2.258 0.344-0.921 0.489-1.981 0.433-3.181v0c-0.059-1.275-0.331-2.382-0.816-3.32-0.492-0.938-1.14-1.647-1.943-2.128z" fill="#009b7d" data-fill-palette-color="primary"></path><path d="M151.563 15.618c-0.757-0.056-1.479-0.213-2.166-0.472-0.686-0.265-1.294-0.608-1.824-1.027v0l0.197-2.654c0.306 1.005 0.833 1.788 1.58 2.349 0.747 0.567 1.544 0.882 2.391 0.945v0c0.847 0.063 1.576-0.167 2.189-0.689 0.613-0.522 0.95-1.2 1.012-2.033v0c0.041-0.558-0.037-1.041-0.235-1.45-0.198-0.409-0.532-0.804-1.003-1.185-0.477-0.381-1.151-0.819-2.02-1.312v0c-1.23-0.679-2.111-1.357-2.642-2.033-0.531-0.683-0.763-1.475-0.697-2.376v0c0.058-0.778 0.295-1.456 0.711-2.034 0.416-0.578 0.957-1.009 1.622-1.292 0.658-0.284 1.369-0.397 2.133-0.341v0c0.654 0.048 1.287 0.189 1.899 0.421 0.62 0.226 1.186 0.527 1.698 0.904v0l-0.175 2.375c-0.291-0.831-0.775-1.497-1.451-1.997-0.676-0.5-1.379-0.777-2.109-0.831v0c-0.833-0.062-1.524 0.161-2.073 0.667-0.556 0.499-0.862 1.123-0.917 1.873v0c-0.04 0.537 0.081 1.013 0.361 1.429 0.281 0.408 0.632 0.76 1.054 1.053 0.428 0.295 1.03 0.664 1.807 1.11v0c0.79 0.453 1.434 0.867 1.932 1.243 0.505 0.376 0.913 0.846 1.225 1.409 0.311 0.57 0.438 1.24 0.381 2.011v0c-0.065 0.881-0.331 1.626-0.799 2.235-0.461 0.616-1.052 1.071-1.772 1.364-0.72 0.286-1.49 0.398-2.309 0.338z" fill="#009b7d" data-fill-palette-color="primary"></path><path d="M167.234 17.653c-0.009 0.041 0.086 0.026 0.285-0.045 0.19-0.065 0.392-0.23 0.603-0.496 0.205-0.267 0.369-0.687 0.492-1.26v0l2.308-10.792c0.123-0.574 0.148-1.02 0.075-1.34-0.071-0.326-0.184-0.558-0.338-0.696-0.147-0.137-0.224-0.189-0.232-0.156v0l3.412 0.73c0.007-0.034-0.084-0.018-0.275 0.047-0.197 0.064-0.398 0.229-0.603 0.496-0.204 0.26-0.367 0.677-0.49 1.25v0l-2.308 10.792c-0.123 0.574-0.145 1.024-0.066 1.351 0.078 0.327 0.195 0.557 0.35 0.689 0.147 0.137 0.224 0.192 0.229 0.166v0z" fill="#009b7d" data-fill-palette-color="primary"></path><path d="M190.263 8.779l2.938 0.972c-0.203-0.024-0.445 0.071-0.726 0.284-0.279 0.206-0.531 0.649-0.757 1.33v0l-4.317 13.042-6.558-15.998-3.312 10.005c-0.221 0.668-0.258 1.176-0.111 1.523 0.145 0.353 0.322 0.586 0.532 0.699v0l-2.939-0.972c0.203 0.024 0.452-0.069 0.746-0.277 0.292-0.201 0.551-0.643 0.776-1.324v0l3.455-10.438c0.156-0.472 0.139-0.957-0.052-1.457-0.193-0.493-0.516-0.869-0.968-1.127v0l2.585 0.856 6.009 14.66 3.152-9.523c0.356-1.075 0.205-1.826-0.453-2.255z" fill="#009b7d" data-fill-palette-color="primary"></path><path d="M201.851 29.275c-1.602 0.123-3.432-0.326-5.491-1.347v0l-3.878-1.923c-0.018 0.037 0.077 0.038 0.288 0.004 0.216-0.032 0.461-0.168 0.734-0.41 0.271-0.235 0.55-0.644 0.839-1.225v0l4.805-9.693c0.254-0.513 0.386-0.933 0.394-1.26 0.011-0.333-0.041-0.586-0.155-0.759-0.109-0.169-0.171-0.239-0.186-0.208v0l3.858 1.913c2.01 0.996 3.436 2.112 4.28 3.347v0c0.754 1.09 1.167 2.269 1.239 3.538 0.075 1.262-0.194 2.512-0.806 3.748v0c-0.662 1.336-1.501 2.36-2.518 3.073-1.019 0.72-2.154 1.12-3.403 1.202zM206.327 18.31c-0.388-0.662-0.867-1.242-1.436-1.741-0.579-0.495-1.32-0.966-2.223-1.414v0l-1.595-0.79-5.936 11.974 1.595 0.791c1.076 0.533 2.006 0.879 2.791 1.037 0.775 0.161 1.508 0.174 2.199 0.039v0c0.891-0.182 1.71-0.589 2.454-1.222 0.748-0.638 1.389-1.496 1.922-2.571v0c0.567-1.144 0.866-2.244 0.896-3.3 0.024-1.059-0.198-1.993-0.667-2.803z" fill="#009b7d" data-fill-palette-color="primary"></path><path d="M227.86 34.874c-0.506 0.682-1.119 1.172-1.84 1.471-0.722 0.289-1.495 0.364-2.32 0.224-0.834-0.138-1.656-0.507-2.465-1.107v0c-0.493-0.366-0.983-0.812-1.471-1.337v0l-2.857 3.849c-0.337 0.454-0.538 0.847-0.602 1.177-0.065 0.33-0.054 0.588 0.032 0.772 0.077 0.186 0.123 0.268 0.14 0.246v0l-2.801-2.079c-0.016 0.022 0.075 0.043 0.276 0.062 0.202 0.029 0.446-0.034 0.734-0.19 0.284-0.15 0.6-0.461 0.95-0.932v0l6.571-8.853c0.346-0.466 0.555-0.864 0.629-1.196 0.074-0.332 0.072-0.595-0.006-0.791-0.073-0.192-0.119-0.273-0.14-0.246v0l3.459 2.567c0.599 0.444 1.063 0.849 1.393 1.215 0.334 0.36 0.591 0.727 0.77 1.099v0c0.33 0.666 0.448 1.359 0.352 2.08-0.1 0.725-0.368 1.382-0.804 1.969zM226.33 34.086c0.617-0.831 0.861-1.699 0.732-2.602-0.133-0.898-0.632-1.668-1.496-2.31v0l-1.372-1.018-3.918 5.279c0.434 0.469 0.929 0.908 1.483 1.32v0c0.826 0.613 1.648 0.854 2.468 0.723 0.814-0.135 1.515-0.599 2.103-1.392z" fill="#009b7d" data-fill-palette-color="primary"></path><path d="M241.136 43.381c0.201-0.209 0.319-0.445 0.354-0.709 0.029-0.269-0.056-0.538-0.256-0.808v0l2.652 2.559c-0.153-0.11-0.454-0.165-0.904-0.167-0.444-0.007-1.083 0.168-1.916 0.525v0l-13.331 5.81 5.306-13.64c0.308-0.786 0.453-1.394 0.436-1.823-0.018-0.439-0.082-0.75-0.192-0.934v0l2.644 2.552c-0.355-0.199-0.674-0.151-0.956 0.141v0c-0.153 0.159-0.279 0.364-0.377 0.615-0.103 0.246-0.164 0.393-0.183 0.442v0l-4.176 10.472 10.024-4.441c0.339-0.143 0.631-0.341 0.875-0.594z" fill="#009b7d" data-fill-palette-color="primary"></path><path d="M247.242 49.58c-0.41-0.493-0.848-0.825-1.313-0.995-0.46-0.165-0.898-0.2-1.313-0.106v0l1.886-1.165 6.666 8.015-1.495 1.634c0.173-0.386 0.218-0.823 0.135-1.31-0.078-0.483-0.325-0.973-0.74-1.472v0l-1.403-1.688-9.376 7.799c-0.451 0.375-0.75 0.718-0.896 1.028-0.146 0.31-0.202 0.567-0.166 0.771 0.036 0.194 0.07 0.278 0.101 0.252v0l-2.237-2.69c-0.032 0.026 0.047 0.078 0.236 0.154 0.19 0.066 0.448 0.058 0.774-0.025 0.316-0.084 0.708-0.32 1.175-0.708v0l9.376-7.799z" fill="#009b7d" data-fill-palette-color="primary"></path><path d="M259.278 67.938c0.503-0.302 0.846-0.589 1.029-0.861 0.189-0.275 0.282-0.516 0.277-0.723 0-0.201-0.015-0.293-0.044-0.275v0l1.798 2.99c0.03-0.018-0.044-0.074-0.222-0.169-0.181-0.1-0.439-0.134-0.774-0.102-0.329 0.029-0.745 0.194-1.248 0.497v0l-10.459 6.292 1.858 3.087c0.342 0.568 0.75 0.986 1.226 1.256 0.482 0.266 0.955 0.376 1.419 0.33v0l-2.199 0.864-4.36-7.248c-0.035 0.021 0.039 0.077 0.222 0.169 0.181 0.1 0.449 0.124 0.805 0.072 0.355-0.052 0.802-0.241 1.339-0.565v0z" fill="#009b7d" data-fill-palette-color="primary"></path><path d="M266.756 79.133c-0.274-0.58-0.615-1.011-1.022-1.292-0.404-0.275-0.82-0.418-1.245-0.431v0l2.117-0.656 4.452 9.427-1.857 1.208c0.264-0.331 0.416-0.742 0.459-1.235 0.045-0.487-0.071-1.024-0.349-1.61v0l-0.937-1.985-11.027 5.208c-0.53 0.251-0.905 0.508-1.125 0.771-0.219 0.264-0.337 0.499-0.353 0.705-0.014 0.197-0.002 0.287 0.035 0.27v0l-1.494-3.164c-0.037 0.018 0.026 0.087 0.19 0.208 0.167 0.112 0.419 0.168 0.755 0.17 0.327-0.002 0.766-0.133 1.315-0.392v0l11.028-5.208z" fill="#009b7d" data-fill-palette-color="primary"></path><path d="M262.981 105.018c-1.222-1.043-2.202-2.652-2.941-4.828v0l-1.392-4.098c-0.039 0.013 0.028 0.082 0.201 0.205 0.175 0.13 0.445 0.206 0.81 0.228 0.358 0.024 0.844-0.068 1.459-0.277v0l10.243-3.479c0.542-0.184 0.932-0.389 1.169-0.615 0.243-0.228 0.385-0.444 0.425-0.648 0.043-0.197 0.047-0.289 0.015-0.278v0l1.385 4.078c0.721 2.124 0.945 3.921 0.672 5.391v0c-0.235 1.304-0.774 2.431-1.618 3.381-0.837 0.948-1.909 1.643-3.216 2.088v0c-1.412 0.479-2.729 0.613-3.952 0.402-1.23-0.209-2.317-0.726-3.26-1.55zM273.89 100.406c0.192-0.743 0.262-1.492 0.209-2.247-0.061-0.759-0.254-1.616-0.577-2.57v0l-0.573-1.686-12.655 4.298 0.572 1.686c0.386 1.137 0.802 2.038 1.247 2.704 0.436 0.661 0.946 1.187 1.531 1.579v0c0.76 0.5 1.627 0.789 2.601 0.866 0.98 0.075 2.039-0.08 3.176-0.467v0c1.209-0.411 2.197-0.979 2.963-1.706 0.764-0.733 1.266-1.552 1.506-2.457z" fill="#009b7d" data-fill-palette-color="primary"></path><path d="M8.598 141.947c0-1.002 0.812-1.814 1.814-1.814 1.002 0 1.814 0.812 1.814 1.814 0 1.002-0.812 1.814-1.814 1.814-1.002 0-1.814-0.812-1.814-1.814z" fill="#009b7d" data-fill-palette-color="primary"></path><path d="M269.23 141.947c0-1.002 0.812-1.814 1.814-1.814 1.002 0 1.814 0.812 1.814 1.814 0 1.002-0.812 1.814-1.814 1.814-1.002 0-1.814-0.812-1.814-1.814z" fill="#009b7d" data-fill-palette-color="primary"></path></g><g id="text-1"><path d="M12.202 182.884c-0.226-0.754-0.34-1.508-0.343-2.264 0.004-0.758 0.112-1.467 0.324-2.129v0l2.628-0.787c-0.859 0.668-1.421 1.463-1.685 2.385-0.271 0.924-0.28 1.806-0.029 2.646v0c0.251 0.84 0.739 1.457 1.463 1.853 0.732 0.4 1.508 0.478 2.328 0.232v0c0.555-0.166 0.994-0.42 1.318-0.762 0.323-0.342 0.578-0.811 0.767-1.407 0.191-0.59 0.363-1.398 0.517-2.425v0c0.199-1.428 0.531-2.522 0.995-3.281 0.456-0.763 1.13-1.279 2.022-1.545v0c0.767-0.23 1.507-0.25 2.22-0.06 0.713 0.19 1.325 0.551 1.837 1.082 0.512 0.531 0.881 1.173 1.106 1.927v0c0.194 0.648 0.295 1.309 0.303 1.984 0.008 0.675-0.077 1.331-0.254 1.968v0l-2.341 0.701c0.69-0.581 1.152-1.289 1.386-2.123 0.233-0.834 0.241-1.614 0.023-2.341v0c-0.246-0.82-0.712-1.404-1.401-1.753-0.688-0.349-1.402-0.412-2.143-0.19v0c-0.536 0.16-0.95 0.45-1.241 0.869-0.292 0.419-0.501 0.889-0.627 1.409-0.125 0.52-0.257 1.233-0.396 2.139v0c-0.147 0.93-0.311 1.703-0.494 2.32-0.174 0.621-0.477 1.187-0.907 1.699-0.433 0.504-1.032 0.871-1.8 1.1v0c-0.866 0.259-1.678 0.279-2.435 0.06-0.759-0.226-1.414-0.632-1.964-1.217-0.541-0.58-0.933-1.277-1.177-2.09z" fill="#009b7d" data-fill-palette-color="primary"></path><path d="M16.438 194.589c-0.307-0.754-0.385-1.479-0.236-2.173 0.147-0.701 0.459-1.316 0.937-1.846 0.48-0.523 1.056-0.921 1.727-1.194v0c0.863-0.351 1.68-0.486 2.451-0.404 0.767 0.09 1.421 0.342 1.962 0.755 0.547 0.411 0.94 0.91 1.179 1.499v0c0.341 0.838 0.332 1.687-0.025 2.547-0.367 0.857-1.075 1.533-2.126 2.027v0l-2.22-5.456c-0.671 0.273-1.212 0.638-1.622 1.095-0.407 0.464-0.66 0.961-0.756 1.493-0.101 0.54-0.048 1.063 0.157 1.568v0c0.533 1.311 1.313 2.029 2.34 2.154v0c-0.806 0.179-1.554 0.081-2.243-0.294-0.687-0.369-1.195-0.959-1.525-1.771zM23.709 191.363c-0.221-0.543-0.607-0.934-1.158-1.172-0.542-0.234-1.137-0.268-1.785-0.101v0l1.553 3.816c0.646-0.263 1.084-0.642 1.314-1.138 0.233-0.49 0.258-0.958 0.076-1.405z" fill="#009b7d" data-fill-palette-color="primary"></path><path d="M22.186 206.723c-0.205-0.438-0.275-0.859-0.208-1.264 0.066-0.405 0.231-0.7 0.492-0.886v0c-0.472-0.063-0.905-0.247-1.298-0.551-0.384-0.301-0.675-0.649-0.874-1.043v0c-0.311-0.616-0.393-1.224-0.247-1.823 0.146-0.599 0.509-1.045 1.087-1.338v0c1.497-0.755 2.953 0.269 4.368 3.073v0l0.222-0.112c0.739-0.373 1.23-0.756 1.473-1.149v0c0.35-0.548 0.355-1.157 0.016-1.828v0c-0.267-0.53-0.645-0.888-1.133-1.075-0.479-0.183-0.968-0.149-1.467 0.102v0c0.095-0.148 0.186-0.275 0.271-0.38 0.08-0.102 0.215-0.201 0.407-0.298v0c0.481-0.242 1.025-0.227 1.634 0.045 0.6 0.27 1.086 0.774 1.46 1.514v0c0.532 1.054 0.558 1.98 0.079 2.777v0c-0.141 0.257-0.355 0.5-0.641 0.729-0.292 0.233-0.701 0.481-1.225 0.745v0l-2.412 1.217c-0.413 0.208-0.677 0.489-0.793 0.841-0.107 0.355-0.051 0.749 0.166 1.18v0l0.13 0.259zM24.896 203.199c-0.544-1.078-1.046-1.737-1.507-1.976-0.461-0.239-0.919-0.244-1.375-0.014v0c-0.376 0.19-0.622 0.437-0.738 0.743-0.113 0.312-0.084 0.638 0.086 0.977v0c0.127 0.253 0.312 0.465 0.554 0.637 0.232 0.169 0.496 0.279 0.793 0.33v0c0.392 0.073 0.832-0.014 1.318-0.259v0z" fill="#009b7d" data-fill-palette-color="primary"></path><path d="M40.337 207.903c0.094-0.379 0.112-0.772 0.052-1.179-0.063-0.413-0.196-0.788-0.399-1.125v0c-0.388-0.645-0.903-0.979-1.546-1.003-0.639-0.018-1.32 0.19-2.041 0.624v0l-3.904 2.349 1.217 2.022-0.771 0.464-1.217-2.022-4.347 2.615c-0.556 0.334-0.946 0.65-1.171 0.946-0.222 0.287-0.338 0.529-0.347 0.728-0.012 0.208 0.003 0.3 0.045 0.276v0l-1.697-2.821c-0.041 0.025 0.033 0.081 0.222 0.168 0.187 0.097 0.459 0.114 0.817 0.052 0.367-0.06 0.828-0.257 1.384-0.591v0l4.347-2.615-0.652-1.082 0.772-0.465 0.651 1.083 2.697-1.623c0.905-0.544 1.797-0.876 2.676-0.994 0.877-0.109 1.673-0.004 2.389 0.315 0.721 0.315 1.295 0.828 1.722 1.537v0c0.334 0.556 0.54 1.032 0.618 1.429v0z" fill="#009b7d" data-fill-palette-color="primary"></path><path d="M31.162 213.72c0.649-0.445 1.371-0.71 2.166-0.795 0.793-0.075 1.56 0.048 2.299 0.37 0.73 0.32 1.329 0.821 1.798 1.504v0c0.453 0.66 0.709 1.363 0.768 2.109 0.065 0.742-0.059 1.446-0.372 2.113-0.313 0.666-0.782 1.214-1.408 1.643v0c-0.643 0.441-1.364 0.701-2.164 0.781-0.799 0.079-1.564-0.041-2.293-0.361-0.734-0.325-1.335-0.83-1.803-1.513v0c-0.453-0.66-0.712-1.361-0.777-2.103-0.059-0.746 0.067-1.452 0.38-2.119 0.317-0.661 0.785-1.204 1.406-1.629zM34.95 219.684c0.524-0.359 0.973-0.814 1.349-1.364 0.37-0.547 0.594-1.11 0.673-1.692 0.075-0.587-0.05-1.116-0.374-1.589v0c-0.453-0.66-1.052-1.003-1.797-1.027-0.755-0.027-1.479 0.198-2.173 0.674v0c-0.524 0.359-0.973 0.814-1.35 1.364-0.376 0.55-0.603 1.116-0.681 1.698-0.069 0.583 0.058 1.111 0.382 1.583v0c0.453 0.66 1.052 1.003 1.797 1.027 0.755 0.027 1.479-0.198 2.174-0.674z" fill="#009b7d" data-fill-palette-color="primary"></path><path d="M37.922 223.203c0.607-0.501 1.302-0.829 2.087-0.984 0.784-0.146 1.558-0.092 2.323 0.163 0.755 0.253 1.397 0.7 1.924 1.338v0c0.51 0.617 0.827 1.295 0.953 2.032 0.131 0.733 0.07 1.446-0.182 2.137-0.252 0.692-0.671 1.279-1.257 1.763v0c-0.601 0.497-1.297 0.82-2.085 0.97-0.789 0.15-1.561 0.099-2.316-0.155-0.76-0.259-1.403-0.708-1.931-1.346v0c-0.51-0.617-0.83-1.293-0.961-2.026-0.126-0.738-0.062-1.452 0.19-2.144 0.257-0.686 0.675-1.269 1.255-1.748zM42.226 228.806c0.49-0.404 0.897-0.897 1.222-1.479 0.32-0.577 0.493-1.159 0.52-1.745 0.022-0.591-0.149-1.107-0.514-1.549v0c-0.51-0.617-1.137-0.905-1.881-0.864-0.754 0.041-1.456 0.329-2.105 0.866v0c-0.49 0.404-0.897 0.897-1.222 1.479-0.325 0.582-0.501 1.166-0.528 1.751-0.017 0.587 0.157 1.101 0.522 1.543v0c0.51 0.617 1.137 0.905 1.881 0.863 0.754-0.041 1.456-0.329 2.105-0.865z" fill="#009b7d" data-fill-palette-color="primary"></path><path d="M52.762 233.773l4.341-4.297c0.451-0.447 0.687-0.826 0.708-1.138 0.026-0.307-0.051-0.552-0.231-0.733v0l-0.094-0.096 2.652 1.001-10.094 9.994c-0.451 0.447-0.687 0.826-0.708 1.138-0.021 0.302 0.058 0.544 0.237 0.726v0l0.095 0.096-2.652-1.002 1.045-1.034c-0.342 0.086-0.801 0.079-1.377-0.022-0.575-0.101-1.135-0.425-1.678-0.975v0c-0.466-0.471-0.766-1.009-0.9-1.615-0.138-0.611-0.106-1.23 0.097-1.859 0.213-0.628 0.577-1.198 1.092-1.707v0c0.652-0.646 1.362-1.086 2.13-1.322 0.772-0.23 1.519-0.28 2.241-0.149v0c0.814 0.155 1.503 0.518 2.066 1.086v0c0.369 0.373 0.626 0.735 0.77 1.087 0.14 0.347 0.226 0.621 0.26 0.822zM46.917 232.932c-0.677 0.67-1.105 1.41-1.285 2.219-0.19 0.809 0.014 1.515 0.612 2.118v0c0.223 0.226 0.513 0.395 0.868 0.51 0.356 0.114 0.714 0.138 1.076 0.071 0.366-0.062 0.684-0.226 0.954-0.493v0l1.898-1.879c0.343-0.34 0.582-0.653 0.715-0.941 0.133-0.297 0.169-0.585 0.107-0.863v0c-0.091-0.435-0.328-0.846-0.711-1.234v0c-0.534-0.54-1.194-0.77-1.981-0.69-0.781 0.074-1.532 0.468-2.253 1.182z" fill="#009b7d" data-fill-palette-color="primary"></path><path d="M64.415 253.504l-6.811-5.153c-0.029 0.039 0.063 0.065 0.277 0.08 0.21 0.02 0.474-0.061 0.794-0.243 0.324-0.188 0.681-0.54 1.073-1.058v0l6.709-8.867c0.375-0.495 0.602-0.916 0.683-1.262 0.08-0.346 0.084-0.62 0.011-0.822-0.068-0.207-0.117-0.292-0.145-0.253v0l6.538 4.947-1.368 1.808c0.33-0.893-0.045-1.748-1.124-2.564v0l-2.51-1.899-3.885 5.135 3.104 2.349c0.242 0.183 0.475 0.299 0.698 0.347 0.233 0.047 0.422 0.06 0.568 0.04 0.145-0.02 0.236-0.038 0.273-0.053v0l-1.324 1.75c0-0.035-0.01-0.124-0.03-0.269-0.016-0.151-0.079-0.324-0.19-0.521-0.105-0.192-0.279-0.38-0.522-0.563v0l-3.12-2.361-3.88 5.126 2.815 2.131c0.539 0.408 1.088 0.65 1.645 0.725 0.557 0.076 1.055 0.002 1.492-0.221v0z" fill="#009b7d" data-fill-palette-color="primary"></path><path d="M71.57 257.967c0.024 0.014 0.076 0.034 0.158 0.06 0.085 0.02 0.18 0.017 0.284-0.008 0.101-0.019 0.191-0.094 0.27-0.223v0c0.159-0.259 0.225-0.599 0.199-1.019v0l-0.086-2.02-1.528 0.631c-0.598 0.249-0.972 0.497-1.123 0.744v0c-0.086 0.141-0.115 0.274-0.085 0.397 0.03 0.123 0.074 0.223 0.132 0.3 0.068 0.074 0.114 0.118 0.137 0.132v0l-2.534-1.551c-0.007 0.012 0.077 0.019 0.254 0.022 0.176 0.003 0.469-0.045 0.877-0.143 0.399-0.096 0.926-0.27 1.583-0.524v0l2.252-0.903-0.074-2.655c-0.017-0.699-0.072-1.258-0.162-1.678-0.085-0.416-0.177-0.715-0.276-0.897-0.093-0.178-0.143-0.262-0.15-0.25v0l3.019 1.849c-0.029-0.018-0.088-0.034-0.177-0.048-0.092-0.008-0.196 0.009-0.311 0.052-0.115 0.043-0.216 0.135-0.303 0.276v0c-0.119 0.194-0.172 0.473-0.16 0.837v0l0.067 1.971 1.556-0.637c0.558-0.225 0.911-0.458 1.059-0.699v0c0.079-0.129 0.113-0.251 0.101-0.363-0.014-0.122-0.05-0.216-0.105-0.283-0.056-0.067-0.099-0.109-0.129-0.128v0l2.569 1.574c0.007-0.012-0.089-0.026-0.289-0.044-0.2-0.017-0.495 0.009-0.885 0.077-0.39 0.069-0.884 0.215-1.483 0.44v0l-2.392 0.914 0.118 3.156c0.017 0.633 0.074 1.134 0.173 1.502 0.093 0.364 0.19 0.622 0.292 0.773 0.102 0.151 0.156 0.221 0.163 0.21v0z" fill="#009b7d" data-fill-palette-color="primary"></path><path d="M80.183 263.036c-0.724-0.373-1.269-0.875-1.635-1.506-0.366-0.631-0.542-1.307-0.527-2.029 0.021-0.719 0.197-1.401 0.528-2.045v0c0.344-0.669 0.819-1.236 1.423-1.701 0.601-0.459 1.273-0.738 2.015-0.838 0.751-0.102 1.501 0.039 2.25 0.425v0c0.902 0.464 1.454 0.997 1.657 1.598 0.2 0.592 0.272 1.145 0.217 1.661v0l-1.667-0.043c0.17-0.526 0.183-1.035 0.042-1.528-0.145-0.502-0.445-0.87-0.9-1.103v0c-0.657-0.338-1.297-0.346-1.921-0.023-0.624 0.323-1.127 0.856-1.51 1.599v0c-0.269 0.522-0.413 1.088-0.432 1.698-0.02 0.611 0.11 1.182 0.388 1.714 0.278 0.531 0.714 0.95 1.309 1.256v0c0.479 0.246 0.993 0.371 1.542 0.374 0.549 0.003 1.049-0.116 1.5-0.357v0c-0.533 0.673-1.186 1.082-1.959 1.227-0.767 0.148-1.541 0.022-2.32-0.379z" fill="#009b7d" data-fill-palette-color="primary"></path><path d="M89.664 267.361c-0.751-0.316-1.319-0.772-1.704-1.368-0.392-0.599-0.607-1.255-0.645-1.966-0.031-0.709 0.094-1.398 0.375-2.067v0c0.361-0.859 0.843-1.532 1.444-2.02 0.606-0.479 1.246-0.764 1.921-0.855 0.677-0.097 1.308-0.023 1.894 0.223v0c0.833 0.35 1.429 0.956 1.785 1.818 0.348 0.865 0.325 1.844-0.067 2.937v0l-5.43-2.283c-0.281 0.668-0.404 1.309-0.37 1.922 0.041 0.616 0.215 1.146 0.522 1.589 0.311 0.453 0.718 0.785 1.221 0.996v0c1.304 0.548 2.364 0.503 3.178-0.134v0c-0.443 0.697-1.041 1.157-1.793 1.38-0.746 0.225-1.523 0.168-2.331-0.172zM92.516 259.935c-0.541-0.227-1.09-0.23-1.647-0.007-0.549 0.219-0.993 0.616-1.332 1.192v0l3.798 1.596c0.27-0.643 0.311-1.221 0.123-1.734-0.182-0.511-0.496-0.86-0.942-1.047z" fill="#009b7d" data-fill-palette-color="primary"></path><path d="M101.272 256.616c0.208-0.6 0.253-1.045 0.134-1.334-0.112-0.287-0.289-0.473-0.53-0.557v0l-0.127-0.044 2.822-0.269-4.754 13.692c-0.217 0.626-0.316 1.121-0.296 1.486 0.015 0.356 0.083 0.613 0.203 0.772 0.125 0.167 0.195 0.228 0.21 0.182v0l-3.08-1.069c-0.016 0.046 0.074 0.04 0.268-0.017 0.193-0.05 0.406-0.213 0.642-0.489 0.244-0.281 0.472-0.728 0.684-1.341v0z" fill="#009b7d" data-fill-palette-color="primary"></path><path d="M106.726 258.362c0.179-0.609 0.203-1.055 0.071-1.339-0.126-0.282-0.311-0.459-0.556-0.531v0l-0.129-0.038 2.806-0.403-4.097 13.902c-0.187 0.636-0.263 1.135-0.226 1.499 0.032 0.355 0.112 0.609 0.24 0.761 0.132 0.161 0.205 0.219 0.219 0.173v0l-3.128-0.922c-0.014 0.046 0.076 0.037 0.268-0.029 0.19-0.059 0.396-0.232 0.617-0.52 0.23-0.292 0.437-0.749 0.62-1.371v0z" fill="#009b7d" data-fill-palette-color="primary"></path><path d="M111.902 274.296c-0.794-0.181-1.432-0.532-1.915-1.053-0.49-0.522-0.814-1.131-0.974-1.826-0.153-0.693-0.149-1.393 0.012-2.1v0c0.207-0.908 0.566-1.655 1.074-2.239 0.514-0.576 1.095-0.968 1.745-1.174 0.65-0.213 1.285-0.248 1.903-0.106v0c0.881 0.201 1.572 0.695 2.073 1.482 0.492 0.792 0.639 1.76 0.441 2.904v0l-5.743-1.312c-0.161 0.707-0.172 1.359-0.033 1.958 0.146 0.6 0.409 1.092 0.789 1.475 0.385 0.392 0.843 0.649 1.374 0.771v0c1.379 0.315 2.415 0.088 3.108-0.682v0c-0.316 0.763-0.825 1.319-1.528 1.669-0.696 0.351-1.471 0.429-2.326 0.233zM113.43 266.49c-0.572-0.131-1.113-0.038-1.624 0.277-0.503 0.31-0.871 0.778-1.107 1.404v0l4.017 0.917c0.155-0.68 0.096-1.256-0.178-1.729-0.267-0.472-0.637-0.761-1.108-0.869z" fill="#009b7d" data-fill-palette-color="primary"></path><path d="M121.74 268.817c0.407-0.416 0.866-0.728 1.376-0.935 0.511-0.214 1.03-0.283 1.556-0.208v0c0.806 0.114 1.415 0.465 1.827 1.053 0.413 0.581 0.55 1.357 0.414 2.327v0l-0.441 3.116c-0.089 0.629-0.088 1.117 0.002 1.464 0.082 0.353 0.198 0.6 0.345 0.739 0.153 0.147 0.234 0.197 0.24 0.149v0l-3.228-0.456c-0.007 0.048 0.08 0.025 0.26-0.068 0.179-0.086 0.357-0.284 0.534-0.594 0.184-0.316 0.322-0.801 0.415-1.457v0l0.361-2.553c0.072-0.513 0.061-0.925-0.034-1.238-0.087-0.319-0.23-0.59-0.429-0.814v0c-0.301-0.335-0.691-0.537-1.169-0.604v0c-0.54-0.076-1.029 0.032-1.468 0.326-0.44 0.3-0.704 0.765-0.793 1.393v0l-0.415 2.932c-0.091 0.642-0.091 1.137-0.001 1.484 0.082 0.353 0.204 0.6 0.366 0.742 0.153 0.147 0.234 0.197 0.24 0.149v0l-3.229-0.456c-0.007 0.048 0.08 0.025 0.261-0.068 0.179-0.086 0.354-0.288 0.525-0.606 0.178-0.323 0.313-0.806 0.403-1.448v0l0.478-3.383c0.089-0.629 0.047-1.074-0.124-1.335-0.165-0.26-0.374-0.408-0.628-0.444v0l2.572-0.734z" fill="#009b7d" data-fill-palette-color="primary"></path><path d="M134.314 277.26c-0.813-0.046-1.515-0.283-2.106-0.71-0.591-0.427-1.027-0.974-1.307-1.64-0.273-0.665-0.39-1.36-0.349-2.083v0c0.043-0.751 0.245-1.462 0.608-2.133 0.362-0.664 0.862-1.192 1.5-1.585 0.645-0.399 1.387-0.575 2.228-0.527v0c1.013 0.057 1.734 0.319 2.164 0.786 0.423 0.459 0.714 0.936 0.873 1.429v0l-1.539 0.639c-0.059-0.549-0.253-1.02-0.584-1.413-0.337-0.399-0.76-0.613-1.27-0.642v0c-0.737-0.042-1.325 0.212-1.764 0.761-0.439 0.549-0.682 1.24-0.73 2.074v0c-0.033 0.586 0.066 1.162 0.297 1.728 0.231 0.566 0.581 1.035 1.05 1.407 0.47 0.372 1.039 0.577 1.707 0.615v0c0.537 0.03 1.058-0.065 1.562-0.285 0.503-0.22 0.912-0.533 1.224-0.936v0c-0.213 0.831-0.643 1.471-1.29 1.918-0.641 0.448-1.398 0.647-2.274 0.597z" fill="#009b7d" data-fill-palette-color="primary"></path><path d="M144.735 277.355c-0.814 0.017-1.519-0.169-2.114-0.556-0.602-0.388-1.065-0.899-1.389-1.535-0.317-0.635-0.483-1.315-0.498-2.04v0c-0.019-0.932 0.147-1.743 0.498-2.433 0.359-0.684 0.827-1.205 1.407-1.562 0.579-0.364 1.186-0.553 1.821-0.566v0c0.904-0.019 1.694 0.293 2.37 0.934 0.669 0.649 1.047 1.552 1.134 2.71v0l-5.89 0.123c0.015 0.725 0.163 1.36 0.444 1.906 0.288 0.546 0.662 0.96 1.123 1.24 0.469 0.287 0.975 0.425 1.521 0.414v0c1.415-0.029 2.364-0.501 2.849-1.416v0c-0.121 0.817-0.48 1.48-1.077 1.99-0.59 0.509-1.323 0.773-2.199 0.791zM144.321 269.411c-0.587 0.012-1.089 0.233-1.509 0.663-0.412 0.423-0.656 0.966-0.732 1.631v0l4.119-0.086c-0.015-0.697-0.212-1.242-0.593-1.634-0.374-0.393-0.803-0.584-1.285-0.574z" fill="#009b7d" data-fill-palette-color="primary"></path><path d="M152.171 279.72c0.394-0.184 0.709-0.556 0.948-1.116 0.232-0.552 0.326-1.093 0.283-1.623v0c-0.011-0.131-0.025-0.226-0.044-0.287v0l-0.155 0.013c-0.378 0.031-0.672-0.049-0.882-0.24-0.216-0.183-0.335-0.419-0.358-0.708v0c-0.025-0.303 0.058-0.569 0.246-0.799 0.182-0.236 0.448-0.369 0.799-0.398v0c0.371-0.03 0.711 0.098 1.018 0.385 0.3 0.287 0.474 0.723 0.522 1.308v0c0.038 0.468-0.019 0.954-0.172 1.457-0.16 0.505-0.429 0.945-0.807 1.323-0.377 0.384-0.843 0.612-1.398 0.685z" fill="#009b7d" data-fill-palette-color="primary"></path><path d="M176.121 271.052c-1.191 1.15-2.939 1.995-5.245 2.534v0l-4.344 1.016c0.011 0.047 0.089-0.014 0.233-0.183 0.145-0.169 0.249-0.437 0.312-0.806 0.063-0.369 0.018-0.879-0.135-1.531v0l-2.536-10.847c-0.134-0.571-0.306-0.992-0.518-1.261-0.212-0.269-0.417-0.434-0.615-0.494-0.198-0.06-0.294-0.076-0.288-0.05v0l4.324-1.011c2.245-0.525 4.108-0.574 5.59-0.148v0c1.315 0.38 2.417 1.047 3.307 2.002 0.889 0.954 1.495 2.121 1.817 3.498v0c0.35 1.499 0.355 2.866 0.013 4.101-0.335 1.234-0.973 2.294-1.915 3.18zM172.497 259.417c-0.752-0.278-1.517-0.425-2.293-0.441-0.778-0.024-1.675 0.083-2.69 0.32v0l-1.784 0.417 3.135 13.408 1.784-0.417c1.203-0.281 2.167-0.613 2.893-0.996 0.724-0.389 1.316-0.86 1.774-1.414v0c0.589-0.726 0.972-1.588 1.15-2.587 0.179-0.992 0.127-2.092-0.155-3.302v0c-0.299-1.277-0.785-2.343-1.461-3.199-0.67-0.864-1.454-1.46-2.353-1.789z" fill="#009b7d" data-fill-palette-color="primary"></path><path d="M187.154 269.161c-0.767 0.274-1.494 0.321-2.181 0.142-0.694-0.177-1.295-0.516-1.803-1.016-0.502-0.502-0.875-1.095-1.119-1.777v0c-0.313-0.877-0.413-1.699-0.298-2.466 0.123-0.762 0.403-1.405 0.84-1.927 0.434-0.529 0.95-0.9 1.547-1.114v0c0.851-0.304 1.699-0.259 2.544 0.136 0.84 0.403 1.485 1.141 1.934 2.211v0l-5.547 1.982c0.244 0.682 0.585 1.238 1.024 1.668 0.446 0.427 0.932 0.7 1.459 0.82 0.535 0.124 1.06 0.094 1.573-0.089v0c1.332-0.476 2.084-1.224 2.254-2.246v0c0.144 0.813 0.014 1.556-0.391 2.229-0.398 0.67-1.01 1.152-1.836 1.447zM184.245 261.757c-0.552 0.197-0.959 0.566-1.221 1.107-0.257 0.532-0.317 1.124-0.178 1.779v0l3.88-1.387c-0.235-0.656-0.595-1.11-1.08-1.362-0.479-0.254-0.946-0.3-1.401-0.137z" fill="#009b7d" data-fill-palette-color="primary"></path><path d="M188.463 253.398c-0.251-0.583-0.518-0.941-0.801-1.075-0.277-0.136-0.532-0.154-0.767-0.053v0l-0.124 0.053 1.9-2.104 5.737 13.311c0.262 0.608 0.524 1.041 0.784 1.296 0.252 0.252 0.475 0.396 0.671 0.432 0.205 0.039 0.298 0.037 0.279-0.007v0l-2.995 1.291c0.019 0.044 0.082-0.02 0.187-0.194 0.108-0.167 0.156-0.432 0.143-0.794-0.01-0.372-0.143-0.855-0.4-1.451v0z" fill="#009b7d" data-fill-palette-color="primary"></path><path d="M197.285 258.409c-0.278-0.571-0.562-0.916-0.851-1.037-0.283-0.123-0.539-0.129-0.769-0.016v0l1.719-2.049 2.702 5.536c0.291 0.595 0.572 1.015 0.844 1.259 0.263 0.24 0.493 0.374 0.691 0.4 0.207 0.03 0.299 0.023 0.278-0.021v0l-2.931 1.43c0.021 0.043 0.08-0.024 0.178-0.202 0.1-0.172 0.137-0.435 0.109-0.79-0.024-0.364-0.182-0.844-0.472-1.44v0zM195.516 253.178c-0.298 0.145-0.582 0.161-0.852 0.047-0.264-0.117-0.459-0.302-0.583-0.556v0c-0.127-0.261-0.155-0.531-0.085-0.812 0.08-0.277 0.269-0.488 0.567-0.633v0c0.298-0.145 0.577-0.163 0.838-0.052 0.271 0.114 0.469 0.301 0.597 0.561v0c0.124 0.254 0.148 0.523 0.07 0.807-0.071 0.28-0.255 0.493-0.552 0.638z" fill="#009b7d" data-fill-palette-color="primary"></path><path d="M207.22 251.9l0.779 7.472-6.14-4.48c-0.388-0.286-0.73-0.479-1.027-0.579-0.291-0.103-0.521-0.15-0.69-0.141-0.166 0.016-0.246 0.03-0.239 0.042v0l2.961-1.705c-0.024 0.014-0.075 0.063-0.154 0.148-0.069 0.088-0.118 0.203-0.147 0.348-0.029 0.144 0.01 0.309 0.118 0.493v0c0.127 0.221 0.336 0.432 0.626 0.631v0l3.589 2.664-0.479-4.192c-0.039-0.288-0.13-0.558-0.275-0.809v0c-0.134-0.233-0.297-0.398-0.488-0.496-0.189-0.106-0.404-0.114-0.646-0.022v0l2.601-1.498c-0.007-0.012-0.059 0.05-0.156 0.185-0.1 0.145-0.175 0.38-0.227 0.705-0.055 0.319-0.057 0.73-0.006 1.234z" fill="#009b7d" data-fill-palette-color="primary"></path><path d="M217.128 253.644c-0.675 0.456-1.367 0.682-2.077 0.679-0.716 0.001-1.382-0.178-1.999-0.536-0.611-0.362-1.119-0.843-1.525-1.443v0c-0.522-0.772-0.822-1.544-0.902-2.315-0.07-0.769 0.042-1.461 0.335-2.075 0.289-0.62 0.697-1.108 1.223-1.463v0c0.749-0.506 1.582-0.673 2.497-0.501 0.914 0.182 1.722 0.736 2.423 1.662v0l-4.881 3.298c0.406 0.6 0.875 1.054 1.407 1.36 0.538 0.303 1.077 0.447 1.616 0.433 0.549-0.013 1.05-0.172 1.502-0.478v0c1.172-0.792 1.714-1.704 1.625-2.735v0c0.342 0.752 0.4 1.504 0.175 2.256-0.219 0.748-0.692 1.367-1.419 1.858zM212.471 247.195c-0.486 0.328-0.789 0.787-0.907 1.375-0.117 0.579-0.027 1.168 0.269 1.767v0l3.414-2.306c-0.39-0.578-0.852-0.928-1.385-1.051-0.527-0.127-0.991-0.055-1.391 0.215z" fill="#009b7d" data-fill-palette-color="primary"></path><path d="M220.214 243.132c-0.12-0.52-0.113-1.114 0.02-1.781 0.134-0.677 0.408-1.178 0.82-1.503v0c0.26-0.205 0.486-0.326 0.677-0.362v0l1.153 1.464c-0.518-0.111-1.012 0.02-1.484 0.392v0c-0.499 0.393-0.718 0.917-0.659 1.573 0.05 0.655 0.342 1.321 0.876 1.998v0l1.134 1.44c0.525 0.667 0.962 1.065 1.31 1.195 0.354 0.126 0.61 0.144 0.768 0.054v0l-2.505 1.973c0.124-0.133 0.168-0.383 0.133-0.751-0.03-0.372-0.311-0.897-0.845-1.574v0l-2.114-2.684c-0.393-0.499-0.743-0.776-1.051-0.833-0.302-0.06-0.554-0.012-0.754 0.147v0l1.246-2.366z" fill="#009b7d" data-fill-palette-color="primary"></path><path d="M232.088 241.685c-0.603 0.547-1.257 0.87-1.96 0.967-0.709 0.102-1.394 0.02-2.054-0.246-0.656-0.271-1.228-0.675-1.715-1.213v0c-0.626-0.69-1.033-1.411-1.221-2.163-0.178-0.751-0.166-1.452 0.036-2.101 0.198-0.655 0.532-1.196 1.003-1.622v0c0.67-0.607 1.47-0.891 2.401-0.851 0.931 0.05 1.809 0.484 2.634 1.301v0l-4.363 3.958c0.487 0.537 1.015 0.919 1.586 1.147 0.575 0.223 1.129 0.29 1.661 0.198 0.542-0.091 1.015-0.319 1.419-0.685v0c1.048-0.951 1.455-1.93 1.22-2.938v0c0.445 0.696 0.609 1.432 0.494 2.208-0.111 0.771-0.491 1.452-1.141 2.04zM226.563 235.963c-0.435 0.394-0.669 0.891-0.703 1.49-0.034 0.59 0.139 1.16 0.517 1.711v0l3.052-2.768c-0.468-0.516-0.975-0.798-1.52-0.844-0.54-0.051-0.989 0.086-1.346 0.411z" fill="#009b7d" data-fill-palette-color="primary"></path><path d="M235.259 226.93l-4.472-4.161c-0.465-0.433-0.854-0.653-1.166-0.662-0.308-0.013-0.549 0.073-0.723 0.261v0l-0.092 0.098 0.892-2.691 10.398 9.677c0.465 0.433 0.854 0.653 1.167 0.661 0.303 0.009 0.542-0.081 0.715-0.268v0l0.092-0.098-0.892 2.691-1.077-1.002c0.1 0.338 0.112 0.797 0.035 1.376-0.077 0.579-0.379 1.151-0.905 1.718v0c-0.451 0.485-0.977 0.807-1.577 0.965-0.605 0.163-1.225 0.156-1.861-0.021-0.637-0.187-1.22-0.528-1.751-1.022v0c-0.672-0.625-1.141-1.317-1.408-2.073-0.262-0.762-0.342-1.506-0.241-2.233v0c0.122-0.82 0.456-1.523 1.001-2.109v0c0.357-0.384 0.709-0.655 1.055-0.815 0.341-0.154 0.611-0.251 0.81-0.292zM234.657 232.804c0.697 0.649 1.454 1.047 2.269 1.193 0.816 0.156 1.514-0.076 2.092-0.698v0c0.216-0.232 0.374-0.529 0.474-0.888 0.099-0.36 0.108-0.719 0.027-1.078-0.077-0.363-0.254-0.675-0.532-0.933v0l-1.955-1.82c-0.354-0.329-0.677-0.554-0.969-0.676-0.302-0.121-0.591-0.145-0.867-0.071v0c-0.431 0.108-0.832 0.362-1.203 0.761v0c-0.517 0.556-0.72 1.225-0.609 2.007 0.106 0.778 0.53 1.512 1.273 2.203z" fill="#009b7d" data-fill-palette-color="primary"></path><path d="M241.077 208.111l-1.993 2.851 5.279 3.688 2.241-3.207c0.32-0.458 0.466-0.811 0.437-1.059-0.025-0.253-0.083-0.412-0.173-0.475v0l1.824 1.275c-0.04-0.028-0.119-0.041-0.237-0.04-0.119 0.001-0.28 0.057-0.484 0.168-0.194 0.109-0.403 0.324-0.628 0.646v0l-2.242 3.208 4.294 3.001c0.481 0.336 0.89 0.534 1.228 0.592 0.342 0.053 0.611 0.035 0.808-0.054 0.193-0.084 0.279-0.134 0.256-0.149v0l-2.063 2.953c0.023 0.016 0.043-0.079 0.061-0.286 0.018-0.206-0.059-0.458-0.231-0.755-0.172-0.297-0.503-0.617-0.996-0.961v0l-9.233-6.451c-0.504-0.352-0.93-0.561-1.278-0.628-0.349-0.067-0.629-0.064-0.839 0.007-0.21 0.072-0.296 0.122-0.256 0.15v0l4.696-6.721 1.893 1.322c-0.338-0.143-0.724-0.157-1.16-0.04-0.439 0.122-0.841 0.444-1.204 0.965z" fill="#009b7d" data-fill-palette-color="primary"></path><path d="M251.742 206.545c-0.304-0.439-0.518-0.993-0.642-1.662-0.126-0.679-0.058-1.245 0.205-1.7v0c0.166-0.287 0.331-0.482 0.494-0.587v0l1.614 0.933c-0.522 0.089-0.933 0.394-1.234 0.913v0c-0.318 0.55-0.327 1.118-0.028 1.705 0.289 0.59 0.807 1.1 1.554 1.532v0l1.586 0.917c0.735 0.425 1.288 0.633 1.66 0.624 0.375-0.014 0.619-0.092 0.733-0.234v0l-1.595 2.761c0.066-0.169 0.014-0.418-0.155-0.747-0.165-0.335-0.621-0.718-1.368-1.149v0l-2.958-1.71c-0.55-0.318-0.978-0.446-1.285-0.383-0.303 0.056-0.519 0.194-0.646 0.415v0l0.281-2.659z" fill="#009b7d" data-fill-palette-color="primary"></path><path d="M262.235 200.802c-0.358 0.732-0.845 1.273-1.462 1.624-0.62 0.357-1.287 0.535-2 0.532-0.71-0.009-1.391-0.173-2.042-0.491v0c-0.837-0.409-1.482-0.928-1.936-1.557-0.444-0.632-0.692-1.287-0.744-1.966-0.059-0.682 0.052-1.308 0.33-1.878v0c0.397-0.812 1.036-1.372 1.916-1.679 0.883-0.298 1.859-0.22 2.928 0.233v0l-2.587 5.292c0.651 0.318 1.284 0.478 1.898 0.479 0.617-0.006 1.156-0.149 1.617-0.432 0.47-0.285 0.824-0.673 1.064-1.162v0c0.621-1.271 0.637-2.332 0.045-3.181v0c0.671 0.482 1.096 1.104 1.276 1.868 0.183 0.758 0.082 1.53-0.303 2.318zM254.983 197.533c-0.258 0.527-0.291 1.075-0.101 1.645 0.187 0.56 0.559 1.026 1.114 1.397v0l1.81-3.701c-0.626-0.306-1.201-0.38-1.724-0.221-0.52 0.153-0.887 0.446-1.099 0.88z" fill="#009b7d" data-fill-palette-color="primary"></path><path d="M266.058 192.063c-0.17 0.423-0.416 0.83-0.738 1.221-0.321 0.391-0.652 0.686-0.992 0.884v0l-1.843-0.743c0.765 0.003 1.383-0.165 1.854-0.503 0.465-0.341 0.804-0.777 1.018-1.309v0c0.175-0.435 0.2-0.838 0.074-1.209-0.126-0.371-0.33-0.613-0.611-0.726v0c-0.307-0.124-0.623-0.087-0.948 0.109-0.318 0.199-0.728 0.533-1.229 1.001v0c-0.651 0.601-1.224 1.036-1.72 1.305-0.502 0.267-1.038 0.285-1.607 0.056v0c-0.634-0.255-1.079-0.71-1.337-1.365-0.257-0.654-0.23-1.369 0.082-2.143v0c0.214-0.531 0.464-0.967 0.749-1.305 0.285-0.339 0.545-0.577 0.778-0.714v0l1.44 0.971c-0.547-0.027-1.019 0.11-1.416 0.412-0.394 0.295-0.679 0.66-0.854 1.095v0c-0.152 0.378-0.165 0.733-0.04 1.067 0.126 0.334 0.33 0.557 0.612 0.671v0c0.378 0.152 0.739 0.123 1.085-0.088 0.345-0.211 0.773-0.57 1.283-1.079v0c0.601-0.606 1.139-1.037 1.614-1.292 0.468-0.258 0.991-0.271 1.567-0.039v0c0.403 0.162 0.736 0.427 0.997 0.793 0.255 0.363 0.406 0.803 0.451 1.32 0.047 0.51-0.042 1.047-0.269 1.61z" fill="#009b7d" data-fill-palette-color="primary"></path><path d="M261.896 181.711c-0.277-0.433-0.463-0.917-0.556-1.453-0.094-0.535-0.062-1.056 0.096-1.564v0c0.242-0.778 0.686-1.322 1.333-1.634 0.64-0.314 1.428-0.325 2.363-0.034v0l3.005 0.935c0.606 0.189 1.088 0.266 1.446 0.233 0.362-0.025 0.623-0.099 0.784-0.222 0.17-0.128 0.232-0.199 0.186-0.213v0l-0.969 3.114c0.046 0.014 0.038-0.075-0.025-0.268-0.056-0.191-0.223-0.398-0.5-0.622-0.282-0.232-0.739-0.447-1.372-0.644v0l-2.462-0.766c-0.494-0.154-0.904-0.209-1.228-0.166-0.329 0.035-0.62 0.132-0.871 0.293v0c-0.379 0.243-0.641 0.596-0.785 1.057v0c-0.162 0.521-0.133 1.021 0.086 1.501 0.226 0.482 0.642 0.818 1.248 1.007v0l2.827 0.88c0.619 0.193 1.108 0.273 1.465 0.239 0.362-0.025 0.625-0.105 0.791-0.242 0.17-0.128 0.232-0.199 0.186-0.213v0l-0.969 3.114c0.046 0.014 0.038-0.075-0.025-0.268-0.056-0.191-0.227-0.396-0.514-0.616-0.291-0.228-0.746-0.438-1.365-0.631v0l-11.13-3.464c-0.606-0.189-1.052-0.219-1.338-0.091-0.284 0.121-0.463 0.304-0.539 0.548v0l-0.04 0.128-0.361-2.812z" fill="#009b7d" data-fill-palette-color="primary"></path></g></svg></g></svg></g></svg></g></svg></g><defs></defs></svg><rect width="279.72" height="279.72" fill="none" stroke="none" visibility="hidden"></rect></g></svg></g></svg>