<svg xmlns="http://www.w3.org/2000/svg" version="1.1" xmlns:xlink="http://www.w3.org/1999/xlink" xmlns:svgjs="http://svgjs.dev/svgjs" width="128" height="128" viewBox="0 0 128 128"><g transform="matrix(0.8046875,0,0,0.8046875,12.487221901590324,13.70599024512368)"><svg viewBox="0 0 95 96" data-background-color="#ececea" preserveAspectRatio="xMidYMid meet" height="129" width="128" xmlns="http://www.w3.org/2000/svg" xmlns:xlink="http://www.w3.org/1999/xlink"><g id="tight-bounds" transform="matrix(1,0,0,1,0.2903490794281538,0.25950000000000273)"><svg viewBox="0 0 94.13522477448733 95.481" height="95.481" width="94.13522477448733"><g><svg viewBox="0 0 94.13522477448733 95.481" height="95.481" width="94.13522477448733"><g><svg viewBox="0 0 94.13522477448733 95.481" height="95.481" width="94.13522477448733"><g id="textblocktransform"><svg viewBox="0 0 94.13522477448733 95.481" height="95.481" width="94.13522477448733" id="textblock"><g><svg viewBox="0 0 94.13522477448733 95.481" height="95.481" width="94.13522477448733"><g><svg viewBox="0 0 94.13522477448733 95.481" height="95.481" width="94.13522477448733"><g><svg xmlns="http://www.w3.org/2000/svg" xmlns:xlink="http://www.w3.org/1999/xlink" version="1.1" x="0" y="0" viewBox="14.40377200101631 13.89389245217481 71.19035655842399 72.2081075478252" enable-background="new 0 0 100 100" xml:space="preserve" height="95.481" width="94.13522477448733" class="icon-icon-0" data-fill-palette-color="accent" id="icon-0"><path d="M81.486 70.233A12.75 12.75 0 0 1 81.486 60.858L85.491 50.693A1.502 1.502 0 0 0 83.789 48.675C77.247 50.041 73.799 55.329 72.326 58.361 72.315 58.383 72.285 58.444 72.201 58.452A0.13 0.13 0 0 1 72.089 58.399C68.445 53.391 60.166 44.989 45.656 44.989 27.624 44.989 16.754 61.085 14.758 64.31A2.33 2.33 0 0 0 14.758 66.78C16.754 70.007 27.624 86.102 45.656 86.102 60.166 86.102 68.445 77.701 72.089 72.693A0.13 0.13 0 0 1 72.201 72.639 0.15 0.15 0 0 1 72.326 72.73C73.799 75.761 77.247 81.049 83.789 82.415A1.502 1.502 0 0 0 85.491 80.397zM75.025 71.42A3.13 3.13 0 0 0 72.467 69.652 3.1 3.1 0 0 0 69.664 70.928C66.356 75.474 58.838 83.102 45.657 83.102 29.774 83.102 19.849 69.185 17.526 65.545 19.848 61.907 29.773 47.988 45.657 47.988 58.838 47.988 66.356 55.616 69.664 60.163A3.1 3.1 0 0 0 72.467 61.439 3.13 3.13 0 0 0 75.025 59.671C76.213 57.227 78.238 54.275 81.507 52.623L78.695 59.758A15.73 15.73 0 0 0 78.695 71.333L81.507 78.469C78.237 76.816 76.213 73.864 75.025 71.42" fill="#ffbf5d" data-fill-palette-color="accent"></path><circle cx="32.603" cy="61.238" r="3.3" fill="#ffbf5d" data-fill-palette-color="accent"></circle><path d="M39.542 37.45A1.5 1.5 0 0 0 41.161 36.08C41.344 33.902 42.928 32.149 44.612 30.579L44.977 30.241C46.84 28.515 48.951 26.558 49.706 23.81 50.692 20.22 48.984 16.522 47.877 14.638A1.499 1.499 0 1 0 45.29 16.157C46.157 17.634 47.507 20.489 46.813 23.016 46.285 24.939 44.583 26.516 42.938 28.04L42.568 28.383C40.545 30.268 38.44 32.627 38.172 35.829A1.5 1.5 0 0 0 39.542 37.45" fill="#ffbf5d" data-fill-palette-color="accent"></path><path d="M53.352 37.45A1.5 1.5 0 0 0 54.971 36.08C55.154 33.902 56.738 32.149 58.423 30.579L58.788 30.24C60.65 28.514 62.761 26.558 63.516 23.811 64.502 20.221 62.794 16.523 61.688 14.638A1.5 1.5 0 1 0 59.101 16.157C59.968 17.634 61.318 20.489 60.623 23.016 60.095 24.939 58.394 26.515 56.749 28.039L56.378 28.383C54.354 30.269 52.25 32.628 51.982 35.829A1.5 1.5 0 0 0 53.352 37.45" fill="#ffbf5d" data-fill-palette-color="accent"></path><path d="M47.22 54.601A1.5 1.5 0 0 0 46.607 56.632C50.135 63.212 48.587 70.935 43.155 73.848A1.5 1.5 0 0 0 44.573 76.492C51.463 72.797 53.561 63.252 49.25 55.214A1.5 1.5 0 0 0 47.22 54.601" fill="#ffbf5d" data-fill-palette-color="accent"></path></svg></g></svg></g></svg></g></svg></g></svg></g></svg></g><defs></defs></svg><rect width="94.13522477448733" height="95.481" fill="none" stroke="none" visibility="hidden"></rect></g></svg></g></svg>